<svg width="18" height="16" viewBox="0 0 18 16" fill="none" xmlns="http://www.w3.org/2000/svg">
<path fill-rule="evenodd" clip-rule="evenodd" d="M8.91869 2.00001C8.72693 1.9991 8.53485 2.07511 8.39689 2.22802L3.58505 7.56135C3.3349 7.83861 3.3642 8.25977 3.6505 8.50203C3.93679 8.74429 4.37167 8.71591 4.62182 8.43865L8.23375 4.43526V13.3333C8.23375 13.7015 8.54196 14 8.92214 14C9.30233 14 9.61053 13.7015 9.61053 13.3333V4.44665L13.2231 8.43936C13.4737 8.71628 13.9086 8.74406 14.1945 8.50141C14.4805 8.25876 14.5091 7.83756 14.2586 7.56064L9.49182 2.2923C9.36797 2.11588 9.15903 2 8.92214 2C8.92099 2 8.91984 2 8.91869 2.00001Z" fill="#3DD598"/>
</svg>
