<svg width="30" height="30" viewBox="0 0 30 30" fill="none" xmlns="http://www.w3.org/2000/svg">
<mask id="mask0_56_31" style="mask-type:alpha" maskUnits="userSpaceOnUse" x="0" y="0" width="30" height="30">
<rect width="30" height="30" fill="#D9D9D9"/>
</mask>
<g mask="url(#mask0_56_31)">
<path d="M7.78847 26.25C7.01389 26.25 6.35549 25.9836 5.81328 25.4507C5.27109 24.9179 5 24.2708 5 23.5096V6.53847C5 5.76389 5.27109 5.10549 5.81328 4.56328C6.35549 4.02109 7.01389 3.75 7.78847 3.75H20.7692V22.0192H7.78847C7.3702 22.0192 7.00922 22.1616 6.70553 22.4465C6.40184 22.7314 6.25 23.0843 6.25 23.5054C6.25 23.9265 6.40184 24.2809 6.70553 24.5685C7.00922 24.8562 7.3702 25 7.78847 25H23.75V6.25H25V26.25H7.78847ZM10.4808 20.7692H19.5192V5H10.4808V20.7692ZM9.23078 20.7692V5H7.78847C7.35257 5 6.98719 5.15184 6.69231 5.45553C6.39744 5.75922 6.25 6.1202 6.25 6.53847V21.2764C6.47435 21.1338 6.71341 21.0136 6.96716 20.9159C7.22089 20.8181 7.49466 20.7692 7.78847 20.7692H9.23078Z" fill="#CBD6E4"/>
</g>
</svg>
