<svg width="30" height="30" viewBox="0 0 30 30" fill="none" xmlns="http://www.w3.org/2000/svg">
<mask id="mask0_56_34" style="mask-type:alpha" maskUnits="userSpaceOnUse" x="0" y="0" width="30" height="30">
<rect width="30" height="30" fill="#D9D9D9"/>
</mask>
<g mask="url(#mask0_56_34)">
<path d="M7.01922 26.2499C6.44391 26.2499 5.96354 26.0572 5.57812 25.6718C5.19271 25.2864 5 24.806 5 24.2307V8.26911C5 7.6938 5.19271 7.21344 5.57812 6.82802C5.96354 6.4426 6.44391 6.2499 7.01922 6.2499H9.23075V3.46143H10.5769V6.2499H19.5192V3.46143H20.7693V6.2499H22.9808C23.5561 6.2499 24.0365 6.4426 24.4219 6.82802C24.8073 7.21344 25 7.6938 25 8.26911V24.2307C25 24.806 24.8073 25.2864 24.4219 25.6718C24.0365 26.0572 23.5561 26.2499 22.9808 26.2499H7.01922ZM7.01922 24.9999H22.9808C23.1731 24.9999 23.3494 24.9198 23.5096 24.7595C23.6699 24.5992 23.75 24.423 23.75 24.2307V13.2691H6.25V24.2307C6.25 24.423 6.33013 24.5992 6.49038 24.7595C6.65065 24.9198 6.82693 24.9999 7.01922 24.9999ZM6.25 12.0191H23.75V8.26911C23.75 8.07682 23.6699 7.90054 23.5096 7.74027C23.3494 7.58002 23.1731 7.4999 22.9808 7.4999H7.01922C6.82693 7.4999 6.65065 7.58002 6.49038 7.74027C6.33013 7.90054 6.25 8.07682 6.25 8.26911V12.0191ZM9.375 16.8749V15.6249H20.625V16.8749H9.375ZM9.375 21.8749V20.6249H16.875V21.8749H9.375Z" fill="#CBD6E4"/>
</g>
</svg>
