<svg width="30" height="30" viewBox="0 0 30 30" fill="none" xmlns="http://www.w3.org/2000/svg">
<mask id="mask0_56_37" style="mask-type:alpha" maskUnits="userSpaceOnUse" x="0" y="0" width="30" height="30">
<rect width="30" height="30" fill="#D9D9D9"/>
</mask>
<g mask="url(#mask0_56_37)">
<path d="M8.75 21.25C7.0139 21.25 5.5382 20.6429 4.32291 19.4288C3.10764 18.2146 2.5 16.7402 2.5 15.0057C2.5 13.2711 3.10764 11.7949 4.32291 10.5769C5.5382 9.35897 7.0139 8.75 8.75 8.75H21.25C22.9861 8.75 24.4618 9.35708 25.6771 10.5713C26.8924 11.7854 27.5 13.2598 27.5 14.9943C27.5 16.7289 26.8924 18.2051 25.6771 19.4231C24.4618 20.641 22.9861 21.25 21.25 21.25H8.75ZM8.75 20H21.25C22.625 20 23.8021 19.5104 24.7812 18.5312C25.7604 17.5521 26.25 16.375 26.25 15C26.25 13.625 25.7604 12.4479 24.7812 11.4688C23.8021 10.4896 22.625 10 21.25 10H8.75C7.375 10 6.19792 10.4896 5.21875 11.4688C4.23958 12.4479 3.75 13.625 3.75 15C3.75 16.375 4.23958 17.5521 5.21875 18.5312C6.19792 19.5104 7.375 20 8.75 20ZM21.2472 18.125C22.1144 18.125 22.8526 17.8215 23.4615 17.2144C24.0705 16.6073 24.375 15.8701 24.375 15.0028C24.375 14.1355 24.0715 13.3974 23.4644 12.7885C22.8573 12.1795 22.1201 11.875 21.2528 11.875C20.3856 11.875 19.6474 12.1785 19.0385 12.7856C18.4295 13.3927 18.125 14.1299 18.125 14.9972C18.125 15.8645 18.4285 16.6026 19.0356 17.2115C19.6427 17.8205 20.3799 18.125 21.2472 18.125Z" fill="#CBD6E4"/>
</g>
</svg>
