<svg width="30" height="30" viewBox="0 0 30 30" fill="none" xmlns="http://www.w3.org/2000/svg">
<mask id="mask0_56_43" style="mask-type:alpha" maskUnits="userSpaceOnUse" x="0" y="0" width="30" height="30">
<rect width="30" height="30" fill="#D9D9D9"/>
</mask>
<g mask="url(#mask0_56_43)">
<path d="M15.035 21.5385C15.3114 21.5385 15.5445 21.4431 15.7344 21.2523C15.9243 21.0614 16.0192 20.8279 16.0192 20.5515C16.0192 20.2752 15.9238 20.0421 15.733 19.8522C15.5422 19.6623 15.3086 19.5673 15.0323 19.5673C14.756 19.5673 14.5228 19.6627 14.3329 19.8535C14.143 20.0443 14.0481 20.2779 14.0481 20.5542C14.0481 20.8306 14.1435 21.0637 14.3343 21.2536C14.5251 21.4435 14.7587 21.5385 15.035 21.5385ZM14.3894 17.399H15.5962C15.6282 16.8558 15.7304 16.4143 15.9027 16.0745C16.0749 15.7348 16.4295 15.3013 16.9663 14.774C17.524 14.2163 17.9391 13.7167 18.2115 13.2752C18.484 12.8337 18.6202 12.3227 18.6202 11.7422C18.6202 10.757 18.2741 9.97194 17.5818 9.387C16.8895 8.80206 16.0706 8.50959 15.125 8.50959C14.226 8.50959 13.4627 8.75399 12.8353 9.24278C12.2079 9.73157 11.7484 10.2933 11.4567 10.9279L12.6058 11.4038C12.8061 10.9487 13.0926 10.5465 13.4652 10.1971C13.8377 9.84775 14.375 9.67306 15.0769 9.67306C15.8878 9.67306 16.48 9.89543 16.8534 10.3402C17.2268 10.7849 17.4135 11.274 17.4135 11.8077C17.4135 12.2404 17.2965 12.627 17.0625 12.9675C16.8285 13.3081 16.524 13.6506 16.149 13.9952C15.4247 14.6635 14.9503 15.23 14.726 15.6947C14.5016 16.1594 14.3894 16.7276 14.3894 17.399ZM15.0042 26.25C13.4485 26.25 11.9859 25.9548 10.6164 25.3644C9.24685 24.774 8.05555 23.9727 7.04247 22.9606C6.02941 21.9485 5.2274 20.7583 4.63644 19.3901C4.04548 18.0218 3.75 16.5599 3.75 15.0042C3.75 13.4485 4.0452 11.9859 4.63559 10.6164C5.22601 9.24685 6.02728 8.05555 7.03941 7.04247C8.05153 6.02941 9.24171 5.2274 10.6099 4.63644C11.9782 4.04548 13.4401 3.75 14.9958 3.75C16.5515 3.75 18.0141 4.0452 19.3836 4.63559C20.7531 5.22601 21.9444 6.02728 22.9575 7.03941C23.9706 8.05153 24.7726 9.24171 25.3636 10.6099C25.9545 11.9782 26.25 13.4401 26.25 14.9958C26.25 16.5515 25.9548 18.0141 25.3644 19.3836C24.774 20.7531 23.9727 21.9444 22.9606 22.9575C21.9485 23.9706 20.7583 24.7726 19.3901 25.3636C18.0218 25.9545 16.5599 26.25 15.0042 26.25ZM15 25C17.7917 25 20.1562 24.0312 22.0938 22.0938C24.0312 20.1562 25 17.7917 25 15C25 12.2083 24.0312 9.84375 22.0938 7.90625C20.1562 5.96875 17.7917 5 15 5C12.2083 5 9.84375 5.96875 7.90625 7.90625C5.96875 9.84375 5 12.2083 5 15C5 17.7917 5.96875 20.1562 7.90625 22.0938C9.84375 24.0312 12.2083 25 15 25Z" fill="#CBD6E4"/>
</g>
</svg>
