<svg width="30" height="30" viewBox="0 0 30 30" fill="none" xmlns="http://www.w3.org/2000/svg">
<mask id="mask0_56_798" style="mask-type:alpha" maskUnits="userSpaceOnUse" x="0" y="0" width="30" height="30">
<rect width="30" height="30" fill="#D9D9D9"/>
</mask>
<g mask="url(#mask0_56_798)">
<path d="M21.875 26.8749V23.1249H18.125V21.8749H21.875V18.1249H23.125V21.8749H26.875V23.1249H23.125V26.8749H21.875ZM7.01922 23.7499C6.44391 23.7499 5.96354 23.5572 5.57812 23.1718C5.19271 22.7864 5 22.306 5 21.7307V8.26911C5 7.6938 5.19271 7.21344 5.57812 6.82802C5.96354 6.4426 6.44391 6.2499 7.01922 6.2499H9.23075V3.46143H10.5769V6.2499H17.0192V3.46143H18.2693V6.2499H20.4808C21.0561 6.2499 21.5365 6.4426 21.9219 6.82802C22.3073 7.21344 22.5 7.6938 22.5 8.26911V15.4134C22.2917 15.3989 22.0833 15.3917 21.875 15.3917C21.6667 15.3917 21.4583 15.3989 21.25 15.4134V13.2691H6.25V21.7307C6.25 21.923 6.33013 22.0992 6.49038 22.2595C6.65065 22.4198 6.82693 22.4999 7.01922 22.4999H15.3606C15.3606 22.7082 15.3678 22.9166 15.3822 23.1249C15.3966 23.3332 15.4231 23.5416 15.4615 23.7499H7.01922ZM6.25 12.0191H21.25V8.26911C21.25 8.07682 21.1699 7.90054 21.0096 7.74027C20.8494 7.58002 20.6731 7.4999 20.4808 7.4999H7.01922C6.82693 7.4999 6.65065 7.58002 6.49038 7.74027C6.33013 7.90054 6.25 8.07682 6.25 8.26911V12.0191Z" fill="#CBD6E4"/>
</g>
</svg>
