<svg width="66" height="66" viewBox="0 0 66 66" fill="none" xmlns="http://www.w3.org/2000/svg">
<path d="M0 33C0 14.7746 14.7746 0 33 0H66V33C66 51.2254 51.2254 66 33 66V66C14.7746 66 0 51.2254 0 33V33Z" fill="#FFE000"/>
<mask id="mask0_73_4" style="mask-type:alpha" maskUnits="userSpaceOnUse" x="17" y="16" width="33" height="33">
<rect x="17" y="16" width="33" height="33" fill="#D9D9D9"/>
</mask>
<g mask="url(#mask0_73_4)">
<path d="M19.75 46.25V21.5C19.75 20.7437 20.0193 20.0964 20.5578 19.5578C21.0964 19.0193 21.7437 18.75 22.5 18.75H44.5C45.2563 18.75 45.9036 19.0193 46.4422 19.5578C46.9807 20.0964 47.25 20.7437 47.25 21.5V38C47.25 38.7563 46.9807 39.4036 46.4422 39.9422C45.9036 40.4807 45.2563 40.75 44.5 40.75H25.25L19.75 46.25ZM24.0813 38H44.5V21.5H22.5V39.5469L24.0813 38Z" fill="#1A2531"/>
</g>
</svg>
