<svg width="30" height="30" viewBox="0 0 30 30" fill="none" xmlns="http://www.w3.org/2000/svg">
<mask id="mask0_462_397" style="mask-type:alpha" maskUnits="userSpaceOnUse" x="0" y="0" width="30" height="30">
<rect width="30" height="30" fill="#D9D9D9"/>
</mask>
<g mask="url(#mask0_462_397)">
<path d="M15 19.4712L10.5769 15.0481L11.4615 14.149L14.375 17.0625V6.25H15.625V17.0625L18.5385 14.149L19.4231 15.0481L15 19.4712ZM8.26922 23.75C7.69391 23.75 7.21354 23.5573 6.82812 23.1719C6.44271 22.7865 6.25 22.3061 6.25 21.7308V18.7019H7.5V21.7308C7.5 21.9231 7.58013 22.0994 7.74038 22.2596C7.90065 22.4199 8.07693 22.5 8.26922 22.5H21.7308C21.9231 22.5 22.0994 22.4199 22.2596 22.2596C22.4199 22.0994 22.5 21.9231 22.5 21.7308V18.7019H23.75V21.7308C23.75 22.3061 23.5573 22.7865 23.1719 23.1719C22.7865 23.5573 22.3061 23.75 21.7308 23.75H8.26922Z" fill="#CBD6E4"/>
</g>
</svg>
