<svg width="20" height="16" viewBox="0 0 20 16" fill="none" xmlns="http://www.w3.org/2000/svg">
<rect width="20" height="16" fill="#0B0F14"/>
<g clip-path="url(#clip0_0_1)">
<rect width="1512" height="982" transform="translate(-345 -495)" fill="#1A2531"/>
<rect x="-53" y="-91" width="1171" height="162" rx="10" fill="#212F40"/>
<rect x="-14" y="-12" width="227.493" height="40" rx="16" fill="#1D2B3C" stroke="#34475F"/>
<path fill-rule="evenodd" clip-rule="evenodd" d="M9.86645 4.66667C12.1358 4.66667 13.9777 6.16 13.9777 8C13.9777 8.43333 13.8708 8.84 13.6817 9.22L16.0826 11.1667C17.3242 10.3267 18.3027 9.24 18.9029 8C17.4804 5.07333 13.9695 3 9.85823 3C8.70708 3 7.60527 3.16667 6.58569 3.46667L8.36174 4.90667C8.83042 4.75333 9.33199 4.66667 9.86645 4.66667ZM1.64402 2.84667L3.51874 4.36667L3.89697 4.67333C2.53205 5.53333 1.46313 6.68 0.821777 8C2.24426 10.9267 5.75525 13 9.86648 13C11.141 13 12.3579 12.8 13.4679 12.44L13.8133 12.72L16.2224 14.6667L17.2667 13.82L2.68827 2L1.64402 2.84667ZM6.19117 6.5332L7.46565 7.56654C7.42454 7.70654 7.39987 7.8532 7.39987 7.99987C7.39987 9.10654 8.50168 9.99987 9.86661 9.99987C10.0475 9.99987 10.2284 9.97987 10.4011 9.94654L11.6755 10.9799C11.1246 11.1999 10.5162 11.3332 9.86661 11.3332C7.59721 11.3332 5.75538 9.83987 5.75538 7.99987C5.75538 7.4732 5.91983 6.97987 6.19117 6.5332ZM9.73499 6.0135L12.3251 8.1135L12.3415 8.00684C12.3415 6.90017 11.2397 6.00684 9.87477 6.00684L9.73499 6.0135Z" fill="#84818A"/>
</g>
<defs>
<clipPath id="clip0_0_1">
<rect width="1512" height="982" fill="white" transform="translate(-345 -495)"/>
</clipPath>
</defs>
</svg>
