<svg width="30" height="30" viewBox="0 0 30 30" fill="none" xmlns="http://www.w3.org/2000/svg">
<mask id="mask0_56_187" style="mask-type:alpha" maskUnits="userSpaceOnUse" x="0" y="0" width="30" height="30">
<rect width="30" height="30" fill="#D9D9D9"/>
</mask>
<g mask="url(#mask0_56_187)">
<path d="M21.9471 23.8222C20.9173 23.8222 20.0469 23.4667 19.3358 22.7556C18.6248 22.0446 18.2692 21.1741 18.2692 20.1443C18.2692 19.1145 18.6248 18.2441 19.3358 17.533C20.0469 16.822 20.9173 16.4664 21.9471 16.4664C22.9769 16.4664 23.8474 16.822 24.5584 17.533C25.2695 18.2441 25.625 19.1145 25.625 20.1443C25.625 21.1741 25.2695 22.0446 24.5584 22.7556C23.8474 23.4667 22.9769 23.8222 21.9471 23.8222ZM21.9447 22.5722C22.6146 22.5722 23.1871 22.3355 23.6623 21.8619C24.1374 21.3884 24.375 20.8167 24.375 20.1468C24.375 19.4769 24.1382 18.9044 23.6647 18.4292C23.1911 17.954 22.6194 17.7164 21.9495 17.7164C21.2797 17.7164 20.7071 17.9532 20.232 18.4268C19.7568 18.9003 19.5192 19.472 19.5192 20.1419C19.5192 20.8118 19.756 21.3843 20.2295 21.8595C20.7031 22.3346 21.2748 22.5722 21.9447 22.5722ZM6.25 20.7694V19.5193H15.2885V20.7694H6.25ZM8.05287 13.5338C7.02306 13.5338 6.15264 13.1782 5.44159 12.4672C4.73053 11.7561 4.375 10.8857 4.375 9.85588C4.375 8.82607 4.73053 7.95563 5.44159 7.24457C6.15264 6.53351 7.02306 6.17798 8.05287 6.17798C9.08269 6.17798 9.95312 6.53351 10.6642 7.24457C11.3753 7.95563 11.7308 8.82607 11.7308 9.85588C11.7308 10.8857 11.3753 11.7561 10.6642 12.4672C9.95312 13.1782 9.08269 13.5338 8.05287 13.5338ZM8.05047 12.2838C8.72034 12.2838 9.29286 12.047 9.76803 11.5734C10.2432 11.0999 10.4808 10.5282 10.4808 9.85829C10.4808 9.18841 10.244 8.61589 9.77047 8.14073C9.29693 7.66556 8.72521 7.42798 8.05531 7.42798C7.38542 7.42798 6.8129 7.66475 6.33775 8.13829C5.86258 8.61183 5.625 9.18355 5.625 9.85345C5.625 10.5233 5.86177 11.0958 6.33531 11.571C6.80885 12.0462 7.38057 12.2838 8.05047 12.2838ZM14.7115 10.4809V9.23085H23.75V10.4809H14.7115Z" fill="#CBD6E4"/>
</g>
</svg>
