<svg width="30" height="30" viewBox="0 0 30 30" fill="none" xmlns="http://www.w3.org/2000/svg">
<mask id="mask0_56_184" style="mask-type:alpha" maskUnits="userSpaceOnUse" x="0" y="0" width="30" height="30">
<rect width="30" height="30" fill="#D9D9D9"/>
</mask>
<g mask="url(#mask0_56_184)">
<path d="M24.3557 25.1922L16.5288 17.3653C15.9038 17.8973 15.185 18.3092 14.3725 18.6009C13.56 18.8925 12.7435 19.0384 11.923 19.0384C9.92091 19.0384 8.22648 18.3454 6.83971 16.9593C5.45292 15.5733 4.75952 13.8798 4.75952 11.8788C4.75952 9.8778 5.45253 8.18299 6.83855 6.79436C8.22457 5.40574 9.91808 4.71143 11.9191 4.71143C13.9201 4.71143 15.6149 5.40481 17.0035 6.79158C18.3921 8.17835 19.0865 9.87279 19.0865 11.8749C19.0865 12.7435 18.9326 13.584 18.6249 14.3965C18.3172 15.209 17.9134 15.9037 17.4134 16.4807L25.2403 24.3076L24.3557 25.1922ZM11.923 17.7884C13.5817 17.7884 14.9819 17.2174 16.1237 16.0756C17.2655 14.9338 17.8365 13.5335 17.8365 11.8749C17.8365 10.2162 17.2655 8.81601 16.1237 7.67418C14.9819 6.53234 13.5817 5.96143 11.923 5.96143C10.2643 5.96143 8.8641 6.53234 7.72227 7.67418C6.58046 8.81601 6.00955 10.2162 6.00955 11.8749C6.00955 13.5335 6.58046 14.9338 7.72227 16.0756C8.8641 17.2174 10.2643 17.7884 11.923 17.7884Z" fill="#CBD6E4"/>
</g>
</svg>
