<svg width="30" height="30" viewBox="0 0 30 30" fill="none" xmlns="http://www.w3.org/2000/svg">
<mask id="mask0_56_973" style="mask-type:alpha" maskUnits="userSpaceOnUse" x="0" y="0" width="30" height="30">
<rect width="30" height="30" fill="#D9D9D9"/>
</mask>
<g mask="url(#mask0_56_973)">
<path d="M24.356 25.1922L16.529 17.3653C15.904 17.8973 15.1853 18.3092 14.3728 18.6009C13.5603 18.8925 12.7438 19.0384 11.9232 19.0384C9.92115 19.0384 8.22672 18.3454 6.83995 16.9593C5.45316 15.5733 4.75977 13.8798 4.75977 11.8788C4.75977 9.8778 5.45278 8.18299 6.8388 6.79436C8.22482 5.40574 9.91833 4.71143 11.9193 4.71143C13.9203 4.71143 15.6152 5.40481 17.0038 6.79158C18.3924 8.17835 19.0867 9.87279 19.0867 11.8749C19.0867 12.7435 18.9329 13.584 18.6252 14.3965C18.3175 15.209 17.9136 15.9037 17.4136 16.4807L25.2406 24.3076L24.356 25.1922ZM11.9232 17.7884C13.5819 17.7884 14.9821 17.2174 16.124 16.0756C17.2658 14.9338 17.8367 13.5335 17.8367 11.8749C17.8367 10.2162 17.2658 8.81601 16.124 7.67418C14.9821 6.53234 13.5819 5.96143 11.9232 5.96143C10.2646 5.96143 8.86435 6.53234 7.72252 7.67418C6.5807 8.81601 6.0098 10.2162 6.0098 11.8749C6.0098 13.5335 6.5807 14.9338 7.72252 16.0756C8.86435 17.2174 10.2646 17.7884 11.9232 17.7884Z" fill="#CBD6E4"/>
</g>
</svg>
