<svg width="8" height="12" viewBox="0 0 8 12" fill="none" xmlns="http://www.w3.org/2000/svg">
<path d="M4 12L0 8.4L0.95 7.545L4 10.29L7.05 7.545L8 8.4L4 12ZM0.966667 4.44L0 3.6L4 0L8 3.6L7.03333 4.44L4 1.71L0.966667 4.44Z" fill="#6F88A4"/>
<path d="M4 12L0 8.4L0.95 7.545L4 10.29L7.05 7.545L8 8.4L4 12ZM0.966667 4.44L0 3.6L4 0L8 3.6L7.03333 4.44L4 1.71L0.966667 4.44Z" fill="#6F88A4"/>
<path d="M4 12L0 8.4L0.95 7.545L4 10.29L7.05 7.545L8 8.4L4 12ZM0.966667 4.44L0 3.6L4 0L8 3.6L7.03333 4.44L4 1.71L0.966667 4.44Z" fill="#6F88A4"/>
</svg>
