<svg width="75" height="75" viewBox="0 0 75 75" fill="none" xmlns="http://www.w3.org/2000/svg">
<mask id="mask0_56_334" style="mask-type:alpha" maskUnits="userSpaceOnUse" x="0" y="0" width="75" height="75">
<rect width="75" height="75" fill="#D9D9D9"/>
</mask>
<g mask="url(#mask0_56_334)">
<path d="M50.3486 62.5L48.1971 60.3486L53.119 55.3486L48.1971 50.4267L50.3486 48.1971L55.3486 53.1971L60.2705 48.1971L62.5 50.4267L57.5 55.3486L62.5 60.3486L60.2705 62.5L55.3486 57.5781L50.3486 62.5ZM20.3125 59.375C21.5985 59.375 22.7013 58.9153 23.6208 57.9958C24.5403 57.0763 25 55.9735 25 54.6875C25 53.4015 24.5403 52.2987 23.6208 51.3792C22.7013 50.4597 21.5985 50 20.3125 50C19.0265 50 17.9237 50.4597 17.0042 51.3792C16.0847 52.2987 15.625 53.4015 15.625 54.6875C15.625 55.9735 16.0847 57.0763 17.0042 57.9958C17.9237 58.9153 19.0265 59.375 20.3125 59.375ZM20.3125 62.5C18.149 62.5 16.3061 61.7388 14.7837 60.2163C13.2612 58.6939 12.5 56.851 12.5 54.6875C12.5 52.5241 13.2612 50.6811 14.7837 49.1587C16.3061 47.6362 18.149 46.875 20.3125 46.875C22.1594 46.875 23.7971 47.4489 25.2254 48.5967C26.6537 49.7446 27.5521 51.23 27.9207 53.0529C30.3526 52.8405 32.3968 51.8409 34.0534 50.0541C35.7101 48.2672 36.5384 46.1659 36.5384 43.75V32.1514C36.5384 28.2692 37.9116 24.9549 40.658 22.2085C43.4045 19.4621 46.7188 18.0889 50.6009 18.0889H56.4784L49.994 11.6045L52.2236 9.375L62.5 19.6514L52.2236 29.9279L49.994 27.7764L56.4183 21.214H50.6009C47.5561 21.214 44.972 22.2757 42.8486 24.3991C40.7252 26.5224 39.6634 29.1066 39.6634 32.1514V43.75C39.6634 47.0312 38.5296 49.8568 36.262 52.2266C33.9944 54.5964 31.2259 55.9195 27.9567 56.1959C27.6122 58.0429 26.7198 59.5553 25.2795 60.7332C23.8391 61.9111 22.1835 62.5 20.3125 62.5ZM14.6514 26.8029L12.5 24.6514L17.4219 19.6514L12.5 14.7295L14.6514 12.5L19.6514 17.5L24.5733 12.5L26.8029 14.7295L21.8029 19.6514L26.8029 24.6514L24.5733 26.8029L19.6514 21.881L14.6514 26.8029Z" fill="#FFE000"/>
</g>
</svg>
