<svg width="75" height="75" viewBox="0 0 75 75" fill="none" xmlns="http://www.w3.org/2000/svg">
<mask id="mask0_56_342" style="mask-type:alpha" maskUnits="userSpaceOnUse" x="0" y="0" width="75" height="75">
<rect width="75" height="75" fill="#D9D9D9"/>
</mask>
<g mask="url(#mask0_56_342)">
<path d="M28.4855 53.125C27.0473 53.125 25.8464 52.6432 24.8828 51.6797C23.9193 50.7161 23.4375 49.5152 23.4375 48.077V14.423C23.4375 12.9848 23.9193 11.7839 24.8828 10.8203C25.8464 9.85677 27.0473 9.375 28.4855 9.375H52.7645C54.2027 9.375 55.4036 9.85677 56.3672 10.8203C57.3307 11.7839 57.8125 12.9848 57.8125 14.423V48.077C57.8125 49.5152 57.3307 50.7161 56.3672 51.6797C55.4036 52.6432 54.2027 53.125 52.7645 53.125H28.4855ZM28.4855 50H52.7645C53.2452 50 53.6859 49.7997 54.0866 49.3991C54.4872 48.9984 54.6875 48.5577 54.6875 48.077V14.423C54.6875 13.9423 54.4872 13.5016 54.0866 13.1009C53.6859 12.7003 53.2452 12.5 52.7645 12.5H28.4855C28.0048 12.5 27.5641 12.7003 27.1634 13.1009C26.7628 13.5016 26.5625 13.9423 26.5625 14.423V48.077C26.5625 48.5577 26.7628 48.9984 27.1634 49.3991C27.5641 49.7997 28.0048 50 28.4855 50ZM19.1105 62.5C17.6723 62.5 16.4714 62.0182 15.5078 61.0547C14.5443 60.0911 14.0625 58.8902 14.0625 57.452V20.673H17.1875V57.452C17.1875 57.9327 17.3878 58.3734 17.7884 58.7741C18.1891 59.1747 18.6298 59.375 19.1105 59.375H46.5145V62.5H19.1105Z" fill="#FFE000"/>
</g>
</svg>
